<svg id="visual" viewBox="0 0 1200 900" width="1200" height="900" xmlns="http://www.w3.org/2000/svg" xmlns:xlink="http://www.w3.org/1999/xlink" version="1.1"><path d="M0 564L50 569.8C100 575.7 200 587.3 300 588.3C400 589.3 500 579.7 600 581C700 582.3 800 594.7 900 595.5C1000 596.3 1100 585.7 1150 580.3L1200 575L1200 901L1150 901C1100 901 1000 901 900 901C800 901 700 901 600 901C500 901 400 901 300 901C200 901 100 901 50 901L0 901Z" fill="#0090CF" stroke-linecap="round" stroke-linejoin="miter"></path></svg>